<svg width="33" height="25" viewBox="0 0 33 25" fill="none" xmlns="http://www.w3.org/2000/svg">
<path fill-rule="evenodd" clip-rule="evenodd" d="M26.5942 4.53399L26.6078 4.53514L26.6214 4.53619C27.5916 4.61168 27.9205 4.78629 27.9711 4.81682L27.9789 4.82173C27.9858 4.82997 28.0339 4.89008 28.1035 5.04971C28.2681 5.42677 28.4632 6.14419 28.5928 7.47201C28.7201 8.77678 28.764 10.4238 28.764 12.5521C28.764 14.6799 28.7202 16.3372 28.5925 17.6547C28.4625 18.9967 28.2662 19.7306 28.098 20.1194C28.0414 20.2502 27.9991 20.3152 27.9818 20.3392C27.9201 20.3714 27.5984 20.516 26.7306 20.561L26.7214 20.5615L26.7123 20.562C21.9369 20.8303 11.1527 20.8312 6.33656 20.5647C5.39886 20.4875 5.07879 20.3175 5.02888 20.2874L5.02107 20.2825C5.01424 20.2743 4.96613 20.2142 4.89646 20.0546C4.73191 19.6775 4.53679 18.9601 4.40721 17.6322C4.27988 16.3275 4.23602 14.6804 4.23602 12.5521C4.23602 10.4238 4.27988 8.77678 4.40721 7.47201C4.53679 6.14419 4.73191 5.42677 4.89646 5.04971C4.96613 4.89008 5.01424 4.82997 5.02107 4.82173L5.02888 4.81682C5.07953 4.78629 5.40839 4.61168 6.3786 4.53619L6.39221 4.53514L6.4058 4.53399C11.119 4.1367 21.881 4.1367 26.5942 4.53399ZM0 12.5521C0 21.1752 0.6875 24.3741 6.05 24.7913C11 25.0695 22 25.0695 26.95 24.7913C32.3125 24.5132 33 21.1752 33 12.5521C33 3.92906 32.3125 0.730179 26.95 0.312934C22 -0.104311 11 -0.104311 6.05 0.312934C0.6875 0.730179 0 3.92906 0 12.5521ZM15.4491 16.5641C14.0403 17.2766 12.3752 16.2528 12.3752 14.674V10.4368C12.3752 8.8581 14.0403 7.83429 15.4491 8.5468L19.6381 10.6654C21.1876 11.4491 21.1876 13.6618 19.6381 14.4455L15.4491 16.5641Z" fill="#C7C5C4"/>
</svg>
