<svg width="30" height="30" viewBox="0 0 30 30" fill="none" xmlns="http://www.w3.org/2000/svg">
<path d="M29.6099 13.9636C29.1435 13.9636 29.1758 13.4532 29.1347 13.1277C29.0526 12.5058 28.9294 12.3181 29.5776 12.1451L29.6832 11.9603L29.2315 10.2708C29.1817 10.089 28.9763 10.1828 28.8502 10.218C28.4014 10.3383 28.3017 9.8455 28.1727 9.53459L27.9908 9.12395C27.7738 8.64292 28.3692 8.53733 28.4132 8.38481V8.27041L27.5332 6.75399C27.4394 6.59267 27.2605 6.73346 27.1578 6.79505C26.7472 7.04144 26.5272 6.59267 26.316 6.31989C25.9259 5.81539 25.7294 5.73326 26.2075 5.24343V5.01758L24.9638 3.78273C24.8289 3.64781 24.6881 3.84433 24.6001 3.92939C24.2716 4.2579 23.9402 3.87953 23.6733 3.67421C23.4063 3.46889 22.9576 3.2577 23.1893 2.84413C23.2509 2.73854 23.4034 2.55082 23.2362 2.45696L21.7022 1.57702C21.5585 1.5037 21.4675 1.71488 21.4089 1.80581C21.1742 2.22818 20.7548 1.9466 20.438 1.80581C19.9042 1.58289 19.6138 1.57702 19.8074 0.92587C19.8219 0.889133 19.8219 0.848216 19.8074 0.811478L19.7165 0.741083L18.027 0.289382C17.9902 0.274863 17.9493 0.274863 17.9126 0.289382L17.7894 0.582695C17.6691 1.0344 17.1852 0.876007 16.8625 0.826144C16.2348 0.744016 16.0237 0.826144 16.0237 0.142726L15.8711 0.0166016H14.1113C13.9206 0.0166016 13.9617 0.248318 13.9587 0.374443C13.9587 0.84081 13.4484 0.808545 13.1228 0.849609C12.5039 0.931736 12.3133 1.05786 12.1402 0.406707L11.9554 0.301115L10.2689 0.752816C10.087 0.802679 10.1809 1.008 10.2161 1.13706C10.3363 1.58582 9.8377 1.68848 9.53266 1.81461L9.12495 1.99059C8.76418 2.15485 8.59112 1.83807 8.47966 1.63862L8.27141 1.58289L6.75499 2.46283C6.5966 2.55962 6.73152 2.72974 6.79605 2.83827C7.04243 3.2489 6.59366 3.46889 6.32088 3.68007C5.81639 4.06725 5.73426 4.2667 5.24443 3.7886H5.01858L3.78373 5.01758V5.2317L3.93039 5.38129C4.25596 5.7098 3.88052 6.04417 3.67521 6.30815C3.46989 6.57214 3.2587 7.02677 2.84513 6.79212C2.73954 6.73052 2.55182 6.578 2.45796 6.74519L1.57802 8.27921C1.50469 8.42294 1.71588 8.51386 1.8068 8.57253C2.22917 8.80718 1.94759 9.22661 1.8068 9.54339C1.66601 9.86017 1.57802 10.3471 1.12925 10.2268L0.818342 10.1887L0.747947 10.2796L0.296246 11.9691C0.281727 12.0058 0.281727 12.0467 0.296246 12.0835L0.589558 12.2067C1.04126 12.3269 0.882871 12.8109 0.833007 13.1335C0.75088 13.7612 0.833007 13.9724 0.149589 13.9724L0 14.122V15.8819C0 16.0725 0.231717 16.0315 0.357841 16.0344C0.824208 16.0344 0.791944 16.5448 0.833007 16.8703C0.915135 17.4922 1.03833 17.6799 0.390106 17.8529L0.284513 18.0377L0.736214 19.7272C0.786077 19.9091 0.991396 19.8152 1.11752 19.78C1.56629 19.6597 1.66601 20.1525 1.79507 20.4634L1.99159 20.8565C2.20864 21.3375 1.61322 21.4431 1.56922 21.5956V21.71L2.44916 23.2264C2.53715 23.3877 2.72487 23.2469 2.8246 23.1854C3.23524 22.939 3.45522 23.3877 3.66641 23.6605C4.05944 24.165 4.25303 24.2471 3.77493 24.737V24.9628L5.01858 26.1977C5.1535 26.3326 5.29429 26.1361 5.38228 26.051C5.71079 25.7225 6.04224 26.1009 6.30915 26.3062C6.57607 26.5115 7.02483 26.7344 6.79312 27.1363C6.73152 27.2419 6.579 27.4296 6.74619 27.5234L8.28021 28.4034C8.42687 28.4767 8.51486 28.2655 8.57352 28.1746C8.80817 27.7522 9.22761 28.0338 9.54439 28.1746C10.131 28.4151 10.351 28.4004 10.175 29.0545C10.1605 29.0913 10.1605 29.1322 10.175 29.1689L10.2659 29.2393L11.9554 29.691C11.9922 29.7055 12.0331 29.7055 12.0698 29.691L12.193 29.3977C12.3133 28.946 12.7972 29.1044 13.1199 29.1543C13.7476 29.2364 13.9587 29.1543 13.9587 29.8377L14.1083 29.9873H15.8682C16.0589 29.9873 16.0178 29.7585 16.0207 29.6294C16.0207 29.1631 16.5311 29.1953 16.8567 29.1543C17.4785 29.0721 17.6662 28.946 17.8393 29.5972L18.0241 29.7028L19.7135 29.2511C19.8954 29.2012 19.8015 28.9959 19.7663 28.8697C19.6461 28.421 20.1388 28.3213 20.4497 28.1922L20.8663 28.0133C21.3473 27.7962 21.4529 28.3916 21.6054 28.4356H21.7198L23.2362 27.5557C23.3975 27.4677 23.2567 27.28 23.1952 27.1803C22.9488 26.7696 23.3975 26.5496 23.6703 26.3385C24.1748 25.9454 24.2569 25.7518 24.7468 26.2299H24.9638L26.1987 24.9628V24.7487C26.0344 24.5845 25.7675 24.3381 26.0227 24.0301L26.5624 23.3291C26.8792 22.8656 27.2575 23.3555 27.4423 23.3085C27.4816 23.2982 27.5153 23.273 27.5362 23.2381L28.4161 21.7041C28.4894 21.5604 28.2783 21.4695 28.1873 21.4108C27.765 21.1762 28.0465 20.7567 28.1873 20.4429C28.4102 19.9091 28.4161 19.6187 29.0673 19.8123C29.104 19.8268 29.1449 19.8268 29.1817 19.8123L29.2521 19.7213L29.7038 18.0319C29.7183 17.9951 29.7183 17.9542 29.7038 17.9175L29.4104 17.7943C28.9587 17.674 29.1171 17.19 29.167 16.8674C29.2491 16.2397 29.167 16.0285 29.8504 16.0285L30 15.8789V14.1103C29.9648 13.9255 29.736 13.9636 29.6099 13.9636ZM23.3858 23.3877V23.3848C18.7584 28.031 11.2407 28.0463 6.59447 23.419C1.94825 18.7916 1.93293 11.2739 6.5603 6.62765C6.82428 6.36256 7.10073 6.1101 7.38854 5.87112L7.42961 5.83592C12.4827 1.65666 19.967 2.36501 24.1463 7.41812C28.0516 12.14 27.7222 19.0583 23.3858 23.3877Z" fill="#24282A"/>
<path d="M25.7936 17.0934C25.8502 16.806 25.8953 16.5127 25.9285 16.2135L23.0188 14.9405L25.9197 13.6705C25.8845 13.3771 25.8385 13.0838 25.7818 12.7905L21.957 14.4888L19.9625 13.6089L21.2384 11.8783L25.4064 11.4119C25.3067 11.1343 25.2001 10.8596 25.0867 10.5877L21.9306 10.9397L23.8078 8.39083C23.6299 8.15618 23.4441 7.92938 23.2505 7.71035L20.772 11.0717L18.6074 11.3122L18.8479 9.17104L22.221 6.68668C22.0001 6.49112 21.7703 6.30633 21.5317 6.13232L18.974 8.01539L19.326 4.86521C19.0562 4.74987 18.7814 4.64523 18.5018 4.55137L18.0413 8.70761L16.2814 9.99818L15.4162 8.02419L17.1027 4.1818C16.8153 4.12511 16.5219 4.08112 16.2228 4.0498L14.9498 6.95947L13.6797 4.0586C13.3864 4.0938 13.0931 4.13978 12.7998 4.19646L14.4922 8.02126L13.6123 10.0158L11.8817 8.73987L11.4183 4.5719C11.1387 4.67163 10.863 4.77817 10.5912 4.89161L10.9431 8.04765L8.39425 6.17045C8.1596 6.34644 7.93177 6.53218 7.71083 6.72775L11.0751 9.20331L11.3156 11.368L9.17446 11.1304L6.69011 7.75728C6.49454 7.97821 6.30975 8.20802 6.13575 8.44656L8.01881 11.0042L4.87157 10.6493C4.75622 10.9192 4.65158 11.1939 4.55772 11.4735L8.71103 11.937L10.0016 13.6969L8.02761 14.5621L4.18522 12.8756C4.12853 13.163 4.08351 13.4563 4.05029 13.7555L6.95995 15.0285L4.05909 16.2985C4.09429 16.5918 4.14027 16.8852 4.19695 17.1785L8.02468 15.4861L10.0192 16.366L8.74329 18.0965L4.57532 18.56C4.67505 18.8396 4.78262 19.1153 4.89797 19.3871L8.05401 19.0351L6.17681 21.584C6.3528 21.8187 6.53854 22.0465 6.7341 22.2674L9.20966 18.9061L11.3743 18.6656L11.1367 20.8068L7.7607 23.2882C7.98163 23.4837 8.21144 23.6685 8.44998 23.8425L11.0077 21.9595L10.6528 25.1067C10.9226 25.2221 11.1974 25.3267 11.477 25.4206L11.9404 21.2702L13.7003 19.9796L14.5655 21.9536L12.879 25.7931C13.1664 25.8497 13.4598 25.8948 13.7589 25.928L15.0319 23.0183L16.302 25.9192C16.5953 25.884 16.8886 25.838 17.1819 25.7813L15.4895 21.9536L16.3694 19.9591L18.1 21.235L18.5663 25.403C18.844 25.3032 19.1187 25.1967 19.3905 25.0832L19.0386 21.9272L21.5875 23.8044C21.8221 23.6284 22.0499 23.4427 22.2709 23.2471L18.9066 20.7686L18.6661 18.604L20.8072 18.8445L23.2916 22.2176C23.4872 21.9966 23.672 21.7668 23.846 21.5283L21.9629 18.9706L25.1131 19.3226C25.2284 19.0527 25.3331 18.778 25.4269 18.4984L21.2707 18.0379L19.9801 16.278L21.9541 15.4127L25.7936 17.0934ZM9.86375 12.0543L11.4124 12.2274L11.5004 13.0222L10.7994 13.3155L9.86375 12.0543ZM11.4388 15.8674L11.4946 16.0668L11.342 15.9994L11.4388 15.8674ZM11.3215 14.04L11.474 13.9726L11.4212 14.175L11.3215 14.04ZM9.0894 15.0168L10.5208 14.4008L10.9959 15.0432L10.5413 15.6591L9.0894 15.0168ZM11.4711 17.7915L9.89894 17.9675L10.8229 16.7121L11.5562 17.0406L11.4711 17.7915ZM17.924 9.87206L17.7509 11.4207L16.956 11.5087L16.6627 10.8077L17.924 9.87206ZM17.6307 12.2802L17.6131 12.4444L17.4635 12.2978L17.6307 12.2802ZM15.9236 11.3181L15.991 11.4706L15.7887 11.4178L15.9236 11.3181ZM14.9469 9.08598L15.5775 10.5173L14.9351 10.9925L14.3192 10.5379L14.9469 9.08598ZM13.9613 11.3386L14.0933 11.4354L13.8939 11.4911L13.9613 11.3386ZM13.2574 10.8195L12.9377 11.5527L12.1868 11.4677L12.0108 9.89552L13.2574 10.8195ZM12.4478 12.3476L12.3012 12.4972L12.2836 12.3476H12.4478ZM12.0577 20.1145L12.2308 18.5658L13.0257 18.4778L13.319 19.1789L12.0577 20.1145ZM12.351 17.6947L12.3686 17.5304L12.5182 17.6771L12.351 17.6947ZM14.0581 18.6568L13.9819 18.5072L14.1842 18.56L14.0581 18.6568ZM15.0348 20.8889L14.4042 19.4575L15.0466 18.9823L15.6625 19.437L15.0348 20.8889ZM16.0204 18.6362L15.8708 18.5394L16.0702 18.4837L16.0204 18.6362ZM13.004 16.9602C12.4823 16.436 12.1886 15.727 12.1868 14.9874C12.1868 13.4388 13.4422 12.1834 14.9909 12.1834C16.5395 12.1834 17.7949 13.4388 17.7949 14.9874C17.7949 15.7311 17.4995 16.4443 16.9736 16.9701C15.8747 18.0637 14.0974 18.0592 13.004 16.9602ZM17.6952 17.6272H17.5309L17.6776 17.4777L17.6952 17.6272ZM16.7126 19.1437L17.044 18.4251L17.8037 18.5101L17.9797 20.0823L16.7126 19.1437ZM18.5106 12.1834L20.0828 12.0074L19.1588 13.2686L18.4255 12.9342L18.5106 12.1834ZM18.5605 15.7999L18.6602 15.9348L18.5077 16.0023L18.5605 15.7999ZM18.4871 13.908L18.6397 13.9755L18.5429 14.1075L18.4871 13.908ZM20.118 17.9206L18.5693 17.7475L18.4813 16.9526L19.1823 16.6593L20.118 17.9206ZM19.4609 15.5741L18.9858 14.9317L19.4404 14.3157L20.8923 14.9581L19.4609 15.5741Z" fill="#24282A"/>
</svg>
