<svg width="400" height="400" fill="none" xmlns="http://www.w3.org/2000/svg"><g style="mix-blend-mode:multiply"><path d="M0 200c0 110.173 89.872 200 200 200s200-89.872 200-200C400 89.827 310.173 0 200 0S0 89.827 0 200zm201.369 189.462c-103.604 0-187.591-83.987-187.591-187.591 0-66.606 34.717-125.092 87.043-158.394-48.722 33.896-80.657 90.282-80.657 154.105 0 103.604 83.987 187.591 187.591 187.591 36.999 0 71.488-10.72 100.548-29.197-30.292 21.077-67.153 33.486-106.934 33.486zM351.916 200c0 83.668-68.248 151.916-151.916 151.916-83.668 0-151.916-68.248-151.916-151.916 0-83.668 68.248-151.916 151.916-151.916 83.714 0 151.916 68.248 151.916 151.916z" fill="url(#paint0_linear)"/><path d="M53.75 205.656c0 77.463 63.184 140.602 140.602 140.602 77.464 0 140.602-63.184 140.602-140.602 0-77.464-63.184-140.603-140.602-140.603S53.75 128.238 53.75 205.656zm54.471-88.23l13.64 23.266-24.635-9.078c3.331-5.018 6.98-9.717 10.995-14.188zm16.469 28.102l13.914 23.723-23.54-.867-27.327-19.8c2.646-5.748 5.703-11.268 9.17-16.468l27.783 13.412zm67.199-68.796l6.25 33.988-9.809 22.582-14.416-21.533.091-32.528c5.84-1.277 11.816-2.144 17.884-2.509zm8.166-.319c4.288 0 8.485.228 12.682.639l-12.409 28.604-8.257-28.97c2.6-.136 5.292-.273 7.984-.273zm4.379 247.08l-6.524-35.492 9.809-22.583 14.416 21.533-.091 34.672a132.472 132.472 0 01-17.61 1.87zm-6.341-175.958c30.018 0 54.471 24.453 54.471 54.471 0 2.464-.228 4.881-.548 7.254v.045c-1.596 11.679-6.843 22.172-14.644 30.338-.319.365-.638.73-1.003 1.049-4.015 3.969-8.668 7.299-13.732 9.9-.137.091-.32.137-.456.228-.776.365-1.506.775-2.281 1.095 0 0-.046 0-.046.045-4.152 1.825-8.577 3.103-13.184 3.832-.685.092-1.415.229-2.099.32-2.098.274-4.243.41-6.432.41a53.48 53.48 0 01-10.174-1.003c-.228-.046-.502-.046-.73-.091-.638-.137-1.231-.32-1.825-.457l-.547-.136c-4.562-1.141-8.896-2.829-12.911-5.064-.501-.274-1.003-.639-1.551-.913-9.808-5.839-17.609-14.598-22.217-25.137l-.274-.547c-2.737-6.478-4.242-13.595-4.242-21.077-.046-30.109 24.407-54.562 54.425-54.562zm5.109-9.306c-1.049-.046-2.098-.183-3.193-.183-2.418 0-4.836.183-7.162.456l6.615-20.529 3.74 20.256zm-60.082 37.5c-1.414 3.284-2.509 6.706-3.33 10.264l-.319.091-18.34-13.275 21.989 2.92zm-5.018 24.27c0 1.779.137 3.558.274 5.337l-23.814-7.801 23.631-4.288.457-1.095c-.32 2.6-.548 5.201-.548 7.847zm4.516 23.038l-22.399.046 19.206-10.402c.73 3.559 1.825 7.026 3.193 10.356zm9.809 16.469l-22.993 7.391 16.378-17.108a61.815 61.815 0 006.615 9.717zm5.611 5.839c2.509 2.327 5.247 4.517 8.121 6.387l-17.154 12.5 9.033-18.887zm25.913 14.371l-13.458 18.431 3.011-22.263a61.05 61.05 0 0010.447 3.832zm9.032 1.779c2.327.274 4.654.411 7.072.411.866 0 1.733-.092 2.6-.137l-6.113 18.887-3.559-19.161zm19.115-.775a56.1 56.1 0 009.991-2.966l-.045 21.487-9.946-18.521zm19.207-7.345c2.646-1.551 5.155-3.239 7.481-5.155l5.794 17.791-13.275-12.636zm14.917-12.318a61.715 61.715 0 006.068-8.029l12.135 16.788-18.203-8.759zm11.041-17.518c1.14-2.737 2.007-5.566 2.737-8.44l14.872 10.767-17.609-2.327zm4.699-23.54c0-1.779-.137-3.559-.274-5.292l19.753 6.478-19.708 3.558c.137-1.596.229-3.148.229-4.744zm-5.019-24.362h18.887l-15.967 8.623c-.776-2.966-1.734-5.84-2.92-8.623zm-11.131-17.153l20.757-6.706-14.37 15.009a56.648 56.648 0 00-6.387-8.303zm-15.1-12.181l16.286-11.861-8.303 17.336c-2.463-2.053-5.155-3.878-7.983-5.475zm-18.842-7.071l13.641-18.704-2.965 21.852c-3.422-1.323-6.98-2.418-10.676-3.148zm-3.604-5.657l-6.478-22.673 10.949-33.805a121.244 121.244 0 0118.248 3.285l-4.425 32.619-18.294 20.574zM185 140.008a58.697 58.697 0 00-11.131 3.969l.045-24.544L185 140.008zm-17.838 7.619c-3.056 1.961-5.976 4.151-8.622 6.569l-.091-.046-7.026-21.487 15.739 14.964zm-13.96 11.678l.73-.456a61.07 61.07 0 00-7.573 10.447l-14.781-20.438 21.624 10.447zm-43.567 8.896l-28.74-1.049c1.733-6.341 4.014-12.5 6.705-18.385l22.035 19.434zm4.106 3.604l18.476 16.287-24.954 7.025-29.927-9.808a121.559 121.559 0 013.512-17.883l32.893 4.379zm-37.272 28.194c0-4.79.32-9.489.821-14.143l24.635 10.767-25.365 7.162a102.434 102.434 0 01-.091-3.786zm.091 4.425l30.475-5.52 25.228 11.04-19.571 13.139-34.079.045a126.823 126.823 0 01-2.053-18.704zm2.144 18.887l29.517 2.783-24.27 16.332a121.88 121.88 0 01-5.247-19.115zm5.338 19.343l29.607-16.059 24.499 2.327-16.059 20.347-30.565 9.854a134.583 134.583 0 01-7.482-16.469zm7.755 16.879l26.871-5.885-16.789 21.305c-3.695-4.881-7.07-9.991-10.082-15.42zm10.447 15.831l21.944-22.902 26.87-5.885-8.074 22.126-28.24 20.575a124.42 124.42 0 01-12.5-13.914zm12.546 13.96l26.277-15.557-10.401 28.467a130.917 130.917 0 01-15.876-12.91zm16.013 12.956l14.963-31.296 21.214-12.546-1.004 25.913-19.662 26.916a119.184 119.184 0 01-15.511-8.987zm15.83 9.124l19.115-21.533-1.14 28.467a117.11 117.11 0 01-17.975-6.934zm18.385 7.117l4.471-32.801 18.294-20.575 6.478 22.673-11.04 34.17 12.545-28.924 8.714 30.475c-1.46.045-2.92.091-4.38.091-12.226-.046-23.95-1.825-35.082-5.109zm60.128-26.962l16.56 24.772a116.757 116.757 0 01-19.48 5.201l2.92-29.973zm16.788 24.681l-16.241-30.247 2.692-27.372 18.567 14.553 11.132 34.124-6.889-30.794 25.046 19.617-26.232-24.954-5.383-24.042 24.315 8.987 20.803 28.741c-13.138 13.868-29.47 24.772-47.81 31.387zm32.254-58.212l28.604 10.538c-3.832 5.748-8.212 11.132-12.911 16.15l-15.693-26.688zm-2.874-4.836l-13.915-23.722 23.541.866L310 251.413l-23.632-20.849 31.798 1.141-35.903-4.745-18.477-16.286 24.955-7.026 33.987 11.132c-2.327 19.662-9.307 37.956-19.845 53.741l-31.569-15.329zm52.326-53.193c0 4.927-.319 9.763-.912 14.553l-28.65-12.5 29.38-8.258c.137 2.053.182 4.106.182 6.205zm-.182-6.433l-34.489 6.25-25.228-11.04 19.571-13.139 35.903-.045-31.387-2.966 26.415-17.746-31.843 17.245-24.499-2.327 16.059-20.347 33.348-10.766c9.307 16.332 15.146 34.991 16.15 54.881zm-16.332-55.064l-29.79 6.524 18.293-23.221a123.202 123.202 0 0111.497 16.697zm-11.679-16.879l-23.586 24.635-26.87 5.885 8.074-22.126 29.015-21.122-27.144 16.058 10.766-29.516a123.5 123.5 0 0129.745 26.186zm-29.79-26.232l-15.465 32.299-21.214 12.546 1.004-25.912 19.936-27.327c5.52 2.463 10.766 5.246 15.739 8.394zm-15.922-8.485l-19.434 21.898 1.14-28.33c6.25 1.642 12.409 3.831 18.294 6.432zm-78.832 20.21l-15.009-22.491c5.748-2.19 11.679-4.015 17.746-5.338l-2.737 27.829zm-.593 5.611l-2.691 27.372-18.568-14.553-10.63-32.618a122.919 122.919 0 0116.926-8.12l14.963 27.919zm-25.502 9.489l-22.856-17.883c5.11-4.197 10.584-7.938 16.333-11.269l6.523 29.152zm1.186 5.338l5.384 24.041-24.316-8.987-18.476-25.593a126.811 126.811 0 0113.184-12.545l24.224 23.084z" fill="url(#paint1_linear)"/><path d="M178.74 198.951c0 12.318 10.036 22.354 22.354 22.354 12.317 0 22.354-10.036 22.354-22.354 0-12.317-10.037-22.354-22.354-22.354-12.318 0-22.354 10.037-22.354 22.354zm39.324 1.734c0 10.31-8.394 18.75-18.75 18.75-10.31 0-18.75-8.394-18.75-18.75 0-10.31 8.394-18.75 18.75-18.75 10.356.045 18.75 8.44 18.75 18.75z" fill="url(#paint2_linear)"/><path d="M168.483 200.046c0-4.471-3.65-8.075-8.075-8.075-4.471 0-8.075 3.65-8.075 8.075 0 4.471 3.65 8.075 8.075 8.075 4.425.045 8.075-3.604 8.075-8.075zm-15.557 1.14c0-3.467 2.829-6.341 6.342-6.341 3.467 0 6.341 2.829 6.341 6.341 0 3.468-2.829 6.342-6.341 6.342-3.513 0-6.342-2.874-6.342-6.342z" fill="url(#paint3_linear)"/><path d="M231.021 200.046c0 4.471 3.649 8.075 8.075 8.075 4.47 0 8.074-3.65 8.074-8.075 0-4.471-3.649-8.075-8.074-8.075-4.426 0-8.075 3.604-8.075 8.075zm13.321 1.14c0 3.468-2.828 6.342-6.341 6.342-3.467 0-6.341-2.829-6.341-6.342 0-3.467 2.828-6.341 6.341-6.341 3.467 0 6.341 2.829 6.341 6.341z" fill="url(#paint4_linear)"/><path d="M198.398 234.718c-4.471 0-8.075 3.649-8.075 8.074 0 4.471 3.65 8.075 8.075 8.075 4.471 0 8.12-3.649 8.12-8.075 0-4.425-3.649-8.074-8.12-8.074zm5.2 9.26c0 3.468-2.828 6.342-6.341 6.342a6.329 6.329 0 01-6.341-6.342c0-3.467 2.829-6.341 6.341-6.341a6.328 6.328 0 016.341 6.341z" fill="url(#paint5_linear)"/><path d="M198.398 169.571c4.471 0 8.12-3.65 8.12-8.075 0-4.471-3.649-8.075-8.12-8.075-4.471 0-8.075 3.65-8.075 8.075 0 4.471 3.65 8.075 8.075 8.075zm-7.436-6.935c0-3.467 2.828-6.341 6.341-6.341a6.328 6.328 0 016.341 6.341c0 3.468-2.828 6.342-6.341 6.342-3.513 0-6.341-2.874-6.341-6.342z" fill="url(#paint6_linear)"/><path d="M177.962 229.105c0-4.471-3.649-8.075-8.075-8.075-4.47 0-8.075 3.65-8.075 8.075 0 4.471 3.65 8.075 8.075 8.075 4.426 0 8.075-3.604 8.075-8.075zm-15.556 1.14c0-3.467 2.828-6.341 6.341-6.341a6.328 6.328 0 016.341 6.341c0 3.468-2.828 6.342-6.341 6.342-3.513 0-6.341-2.874-6.341-6.342z" fill="url(#paint7_linear)"/><path d="M218.073 229.378c0 4.471 3.65 8.075 8.075 8.075 4.471 0 8.075-3.65 8.075-8.075 0-4.471-3.65-8.075-8.075-8.075-4.425 0-8.075 3.604-8.075 8.075zm13.276 1.141c0 3.467-2.829 6.341-6.342 6.341-3.467 0-6.341-2.828-6.341-6.341a6.328 6.328 0 016.341-6.341c3.513 0 6.342 2.874 6.342 6.341z" fill="url(#paint8_linear)"/><path d="M218.073 171.808c0 4.471 3.65 8.075 8.075 8.075 4.471 0 8.075-3.65 8.075-8.075 0-4.471-3.65-8.12-8.075-8.12-4.425.045-8.075 3.649-8.075 8.12zm13.276 1.141c0 3.467-2.829 6.341-6.342 6.341-3.467 0-6.341-2.829-6.341-6.341 0-3.468 2.829-6.342 6.341-6.342 3.513 0 6.342 2.874 6.342 6.342z" fill="url(#paint9_linear)"/><path d="M178.743 172.855c0-4.47-3.649-8.074-8.074-8.074-4.426 0-8.075 3.649-8.075 8.074 0 4.471 3.649 8.075 8.075 8.075 4.425 0 8.074-3.604 8.074-8.075zm-15.556 1.141c0-3.467 2.828-6.341 6.341-6.341a6.327 6.327 0 016.341 6.341c0 3.467-2.828 6.341-6.341 6.341-3.513 0-6.341-2.874-6.341-6.341z" fill="url(#paint10_linear)"/></g><defs><linearGradient id="paint0_linear" x1="0" y1="200" x2="400" y2="200" gradientUnits="userSpaceOnUse"><stop stop-color="#C7C5C4"/><stop offset="1" stop-color="#C7C5C4" stop-opacity="0"/></linearGradient><linearGradient id="paint1_linear" x1="53.75" y1="205.656" x2="334.954" y2="205.656" gradientUnits="userSpaceOnUse"><stop stop-color="#C7C5C4"/><stop offset="1" stop-color="#C7C5C4" stop-opacity="0"/></linearGradient><linearGradient id="paint2_linear" x1="178.74" y1="198.951" x2="223.448" y2="198.951" gradientUnits="userSpaceOnUse"><stop stop-color="#C7C5C4"/><stop offset="1" stop-color="#C7C5C4" stop-opacity="0"/></linearGradient><linearGradient id="paint3_linear" x1="152.333" y1="200.046" x2="168.483" y2="200.046" gradientUnits="userSpaceOnUse"><stop stop-color="#C7C5C4"/><stop offset="1" stop-color="#C7C5C4" stop-opacity="0"/></linearGradient><linearGradient id="paint4_linear" x1="231.021" y1="200.046" x2="247.17" y2="200.046" gradientUnits="userSpaceOnUse"><stop stop-color="#C7C5C4"/><stop offset="1" stop-color="#C7C5C4" stop-opacity="0"/></linearGradient><linearGradient id="paint5_linear" x1="190.323" y1="242.792" x2="206.518" y2="242.792" gradientUnits="userSpaceOnUse"><stop stop-color="#C7C5C4"/><stop offset="1" stop-color="#C7C5C4" stop-opacity="0"/></linearGradient><linearGradient id="paint6_linear" x1="190.323" y1="161.496" x2="206.518" y2="161.496" gradientUnits="userSpaceOnUse"><stop stop-color="#C7C5C4"/><stop offset="1" stop-color="#C7C5C4" stop-opacity="0"/></linearGradient><linearGradient id="paint7_linear" x1="161.812" y1="229.105" x2="177.962" y2="229.105" gradientUnits="userSpaceOnUse"><stop stop-color="#C7C5C4"/><stop offset="1" stop-color="#C7C5C4" stop-opacity="0"/></linearGradient><linearGradient id="paint8_linear" x1="218.073" y1="229.378" x2="234.223" y2="229.378" gradientUnits="userSpaceOnUse"><stop stop-color="#C7C5C4"/><stop offset="1" stop-color="#C7C5C4" stop-opacity="0"/></linearGradient><linearGradient id="paint9_linear" x1="218.073" y1="171.785" x2="234.223" y2="171.785" gradientUnits="userSpaceOnUse"><stop stop-color="#C7C5C4"/><stop offset="1" stop-color="#C7C5C4" stop-opacity="0"/></linearGradient><linearGradient id="paint10_linear" x1="162.594" y1="172.855" x2="178.743" y2="172.855" gradientUnits="userSpaceOnUse"><stop stop-color="#C7C5C4"/><stop offset="1" stop-color="#C7C5C4" stop-opacity="0"/></linearGradient></defs></svg>